<svg width="30" height="30" viewBox="0 0 30 30" fill="none" xmlns="http://www.w3.org/2000/svg">
<g clip-path="url(#clip0_2_6)">
<path d="M29.12 14.56C29.119 11.7776 28.3207 9.05375 26.8197 6.71094C25.3187 4.36812 23.1778 2.50444 20.6506 1.34054C18.1233 0.176635 15.3155 -0.238754 12.5595 0.143549C9.80344 0.525851 7.21468 1.68984 5.09964 3.4977C2.9846 5.30557 1.43186 7.6816 0.625248 10.3445C-0.181368 13.0074 -0.208083 15.8457 0.548266 18.5233C1.30462 21.201 2.81235 23.6058 4.89299 25.4532C6.97362 27.3005 9.54002 28.513 12.2883 28.9472V18.7659H8.58456V14.56H12.2883V11.35C12.2883 7.70387 14.4612 5.68737 17.7864 5.68737C18.8895 5.70154 19.9899 5.79783 21.0787 5.97544V9.55577H19.2103C18.8973 9.51386 18.5789 9.54285 18.2786 9.64058C17.9783 9.73831 17.7038 9.90229 17.4755 10.1204C17.2471 10.3385 17.0707 10.6051 16.9592 10.9006C16.8478 11.1961 16.8042 11.5128 16.8317 11.8274V14.56H20.8729L20.2309 18.7659H16.8317V28.9472C20.2572 28.4044 23.3768 26.6573 25.6293 24.02C27.8819 21.3827 29.1196 18.0283 29.12 14.56Z" fill="white"/>
</g>
<defs>
<clipPath id="clip0_2_6">
<rect width="29.12" height="29.12" fill="white"/>
</clipPath>
</defs>
</svg>
