<svg width="152" height="39" viewBox="0 0 152 39" fill="none" xmlns="http://www.w3.org/2000/svg">
<g clip-path="url(#clip0_3_82)">
<path d="M9.147 0.047868V2.06541C8.77615 2.02346 8.40319 2.00333 8.03001 2.00514C4.08097 2.00514 1.99475 4.67511 1.99475 9.72607V14.855H5.65355V16.7467H1.98771V38.8848H0V9.49736C0 6.24943 0.835543 3.68938 2.41516 2.09555C3.79425 0.709155 5.67994 0 8.02298 0C8.43107 0 8.79519 0.015956 9.147 0.047868Z" fill="#282828"/>
<path d="M104.83 0.125854H102.842V38.9734H104.83V0.125854Z" fill="#282828"/>
<path d="M120.246 5.22293C119.989 4.89977 119.797 4.52821 119.683 4.12985C119.569 3.73149 119.535 3.31429 119.583 2.9025C119.63 2.49071 119.759 2.09255 119.96 1.73119C120.162 1.36982 120.433 1.05246 120.757 0.797556C121.081 0.542653 121.453 0.355298 121.85 0.246386C122.247 0.137475 122.661 0.10918 123.069 0.163148C123.477 0.217116 123.87 0.35227 124.225 0.560749C124.581 0.769228 124.892 1.04687 125.14 1.37753L133.935 12.724C134.002 12.8109 134.077 12.9013 134.151 12.9811C133.074 13.1583 132.059 13.6056 131.198 14.2819C130.337 14.9582 129.659 15.8417 129.226 16.8513C129.17 16.7534 129.107 16.6598 129.038 16.5712L120.246 5.22293Z" fill="#282828"/>
<path d="M150.375 33.9313C150.634 34.2539 150.827 34.6252 150.942 35.0236C151.057 35.422 151.092 35.8395 151.046 36.2517C150.999 36.664 150.872 37.0628 150.671 37.4249C150.47 37.787 150.199 38.1052 149.875 38.361C149.551 38.6167 149.179 38.8048 148.782 38.9144C148.385 39.024 147.97 39.0529 147.562 38.9993C147.154 38.9458 146.76 38.8109 146.404 38.6025C146.048 38.3941 145.737 38.1164 145.488 37.7856L136.693 26.4391C136.549 26.2492 136.38 26.0794 136.192 25.9338C137.294 25.7638 138.334 25.3113 139.213 24.6196C140.092 23.928 140.78 23.0203 141.21 21.9838C141.31 22.1967 141.433 22.3977 141.576 22.5831L150.375 33.9313Z" fill="#282828"/>
<path d="M134.377 25.9764C134.215 26.1117 134.069 26.2645 133.94 26.432L125.145 37.7785C124.638 38.4325 123.894 38.8567 123.076 38.9578C122.259 39.0589 121.435 38.8285 120.786 38.3174C120.137 37.8063 119.716 37.0563 119.616 36.2324C119.516 35.4086 119.744 34.5783 120.251 33.9242L129.047 22.5777C129.133 22.4652 129.211 22.3467 129.281 22.2231C129.745 23.2326 130.457 24.1061 131.35 24.761C132.242 25.4158 133.286 25.8305 134.382 25.9657" fill="#282828"/>
<path d="M136.406 13.0413C136.509 12.9446 136.603 12.8403 136.69 12.7293L145.485 1.38282C145.736 1.05955 146.047 0.789198 146.401 0.587205C146.755 0.385212 147.146 0.255532 147.55 0.205567C147.954 0.155603 148.364 0.186333 148.756 0.296003C149.148 0.405673 149.515 0.592136 149.836 0.844744C150.157 1.09735 150.425 1.41116 150.625 1.76825C150.826 2.12534 150.954 2.51872 151.004 2.92593C151.053 3.33313 151.023 3.74619 150.914 4.14153C150.805 4.53686 150.62 4.90672 150.37 5.22998L141.575 16.5765C141.447 16.7416 141.336 16.9199 141.246 17.1083C140.846 16.0734 140.192 15.1577 139.345 14.4469C138.499 13.7362 137.487 13.2538 136.405 13.0449" fill="#282828"/>
<path d="M139.404 19.578C139.404 20.3937 139.164 21.1912 138.715 21.8695C138.266 22.5479 137.627 23.0767 136.879 23.3891C136.132 23.7015 135.309 23.7834 134.515 23.6245C133.721 23.4656 132.992 23.073 132.42 22.4963C131.847 21.9197 131.458 21.1849 131.3 20.3849C131.141 19.585 131.222 18.7557 131.532 18.0021C131.842 17.2485 132.366 16.6044 133.039 16.1512C133.712 15.698 134.503 15.4561 135.312 15.4561C136.397 15.4561 137.438 15.8903 138.205 16.6632C138.972 17.4362 139.403 18.4846 139.404 19.578Z" fill="#FF8500"/>
<path d="M23.0118 14.7026C16.1902 14.7026 11.0503 19.9255 11.0503 26.8522V26.9408C11.0503 33.8161 16.1937 38.9965 23.0118 38.9965C29.8298 38.9965 34.9732 33.7753 34.9732 26.8486V26.7706C34.9732 19.8954 29.828 14.715 23.0118 14.715M33.0699 26.8079V26.8965C33.0699 32.747 28.7656 37.1633 23.0593 37.1633C17.3969 37.1633 12.9606 32.6531 12.9606 26.8965V26.8079C12.9606 20.9573 17.2632 16.5411 22.9695 16.5411C28.6336 16.5411 33.0699 21.0513 33.0699 26.8079Z" fill="#282828"/>
<path d="M91.4085 17.3389C89.6969 15.6138 87.1956 14.7398 83.9748 14.7398C81.2782 14.7398 78.819 15.3621 76.001 16.7574L75.5982 16.9577L76.3335 18.6242L76.768 18.4132C79.3819 17.1456 81.5913 16.5801 83.9308 16.5801C89.1112 16.5801 91.8465 19.1703 91.8465 24.0705V25.2885C89.2953 24.4953 86.641 24.0908 83.9712 24.0882C77.6756 24.0882 73.6052 27.0667 73.6052 31.6727V31.7631C73.6052 36.6988 78.1506 38.9451 82.374 38.9451C87.0654 38.9451 90.2897 36.7272 91.8465 34.5377V39.0036H93.7163V24.0244C93.7163 21.1754 92.9177 18.8635 91.4049 17.3389M91.8465 27.2174V29.7509C91.8465 33.2878 88.2422 37.1048 82.418 37.1048C79.2359 37.1048 75.5208 35.6953 75.5208 31.7188V31.6283C75.5208 27.4266 79.9096 25.9303 84.017 25.9303C86.937 25.9303 89.4278 26.3398 91.8465 27.2174Z" fill="#282828"/>
<path d="M55.8284 16.5765C57.9041 16.5546 59.9316 17.2073 61.6104 18.438L61.642 18.4611H64.4881L64.2753 18.2608C62.7256 16.752 60.1662 14.7433 55.8706 14.7433C49.3815 14.7433 44.0991 20.1648 44.0991 26.8274V26.9125C44.0991 33.5803 49.3622 39.0036 55.8284 39.0036C59.0984 39.0036 61.8601 37.837 64.2718 35.4365L64.4776 35.2308H61.6491L61.6174 35.2539C59.9635 36.5121 57.9427 37.1829 55.8706 37.1615C50.4352 37.1615 46.02 32.552 46.02 26.8699V26.7848C46.02 21.0619 50.3314 16.5801 55.8354 16.5801" fill="#282828"/>
</g>
<defs>
<clipPath id="clip0_3_82">
<rect width="151.036" height="39" fill="white"/>
</clipPath>
</defs>
</svg>
