<svg width="89" height="23" viewBox="0 0 89 23" fill="none" xmlns="http://www.w3.org/2000/svg">
<g clip-path="url(#clip0_9_49)">
<path d="M5.33575 0.027923V1.20483C5.11942 1.18035 4.90186 1.16861 4.68417 1.16966C2.38057 1.16966 1.1636 2.72715 1.1636 5.67354V8.66544H3.2979V9.76891H1.1595V22.6828H0V5.54013C0 3.6455 0.4874 2.15214 1.40884 1.22241C2.21331 0.413674 3.3133 0 4.68007 0C4.91813 0 5.13053 0.00930766 5.33575 0.027923Z" fill="white"/>
<path d="M61.1508 0.0734253H59.9913V22.7345H61.1508V0.0734253Z" fill="white"/>
<path d="M70.1436 3.04671C69.9933 2.85821 69.8817 2.64146 69.8153 2.40909C69.7488 2.17671 69.7289 1.93334 69.7566 1.69313C69.7844 1.45292 69.8592 1.22066 69.9768 1.00986C70.0944 0.799067 70.2524 0.613939 70.4416 0.465246C70.6308 0.316553 70.8475 0.207262 71.079 0.14373C71.3105 0.0801987 71.5523 0.0636935 71.7902 0.0951748C72.0281 0.126656 72.2574 0.205496 72.4648 0.327109C72.6722 0.448721 72.8535 0.61068 72.9983 0.803565L78.1288 7.42235C78.1678 7.47302 78.2119 7.52577 78.255 7.57231C77.6267 7.67566 77.0343 7.9366 76.5322 8.3311C76.0302 8.72561 75.6346 9.24102 75.3819 9.82993C75.3493 9.77283 75.3126 9.71821 75.2721 9.66653L70.1436 3.04671Z" fill="white"/>
<path d="M87.7188 19.7933C87.8698 19.9815 87.9822 20.1981 88.0493 20.4305C88.1165 20.6628 88.1371 20.9064 88.1099 21.1469C88.0828 21.3874 88.0084 21.62 87.8912 21.8312C87.7739 22.0425 87.6161 22.2281 87.427 22.3772C87.2379 22.5264 87.0212 22.6362 86.7896 22.7001C86.558 22.764 86.316 22.7809 86.0779 22.7496C85.8398 22.7184 85.6102 22.6397 85.4025 22.5181C85.1948 22.3966 85.0132 22.2346 84.8683 22.0416L79.7378 15.4228C79.6535 15.3121 79.5552 15.213 79.4453 15.1281C80.0882 15.0289 80.6951 14.7649 81.2077 14.3615C81.7203 13.958 82.1215 13.4286 82.3728 12.8239C82.4308 12.9481 82.5024 13.0653 82.5862 13.1735L87.7188 19.7933Z" fill="white"/>
<path d="M78.3863 15.1529C78.2921 15.2318 78.2068 15.321 78.1319 15.4187L73.0013 22.0374C72.7055 22.419 72.2714 22.6664 71.7946 22.7254C71.3177 22.7844 70.8372 22.65 70.4586 22.3518C70.0801 22.0537 69.8346 21.6162 69.7761 21.1356C69.7176 20.655 69.8509 20.1707 70.1467 19.7891L75.2772 13.1703C75.3275 13.1047 75.3731 13.0356 75.4137 12.9635C75.6846 13.5524 76.1 14.0619 76.6207 14.4439C77.1414 14.8259 77.7502 15.0678 78.3894 15.1467" fill="white"/>
<path d="M79.5705 7.60742C79.63 7.55101 79.6852 7.49017 79.7357 7.4254L84.8662 0.806617C85.0124 0.618044 85.194 0.46034 85.4007 0.342511C85.6074 0.224682 85.8351 0.149035 86.0708 0.119889C86.3064 0.0907427 86.5455 0.108669 86.7743 0.172643C87.0031 0.236617 87.2172 0.345387 87.4043 0.492742C87.5914 0.640097 87.7479 0.823152 87.8648 1.03145C87.9817 1.23976 88.0567 1.46923 88.0857 1.70676C88.1146 1.9443 88.0968 2.18525 88.0333 2.41586C87.9698 2.64647 87.8619 2.86223 87.7157 3.0508L82.5852 9.66958C82.5106 9.76593 82.4463 9.86992 82.3933 9.97984C82.1602 9.37612 81.7788 8.84194 81.2849 8.42736C80.791 8.01278 80.2007 7.73136 79.5695 7.60949" fill="white"/>
<path d="M81.3189 11.4205C81.3191 11.8963 81.1793 12.3615 80.9171 12.7572C80.655 13.153 80.2823 13.4614 79.8462 13.6437C79.4101 13.8259 78.9302 13.8737 78.4671 13.781C78.0041 13.6883 77.5787 13.4593 77.2448 13.1229C76.9109 12.7865 76.6835 12.3579 76.5913 11.8912C76.4992 11.4246 76.5464 10.9409 76.727 10.5013C76.9076 10.0616 77.2135 9.68589 77.606 9.42153C77.9986 9.15716 78.46 9.01605 78.9321 9.01605C79.565 9.01605 80.1719 9.26935 80.6194 9.72025C81.067 10.1711 81.3186 10.7827 81.3189 11.4205Z" fill="#FF8500"/>
<path d="M13.4236 8.57648C9.44433 8.57648 6.44604 11.6232 6.44604 15.6637V15.7155C6.44604 19.726 9.44638 22.7479 13.4236 22.7479C17.4008 22.7479 20.4011 19.7022 20.4011 15.6617V15.6162C20.4011 11.6056 17.3997 8.58372 13.4236 8.58372M19.2908 15.6379V15.6896C19.2908 19.1024 16.78 21.6786 13.4513 21.6786C10.1482 21.6786 7.5604 19.0476 7.5604 15.6896V15.6379C7.5604 12.2251 10.0703 9.64893 13.3989 9.64893C16.703 9.64893 19.2908 12.2799 19.2908 15.6379Z" fill="white"/>
<path d="M53.3216 10.1143C52.3232 9.10806 50.8641 8.59821 48.9853 8.59821C47.4123 8.59821 45.9778 8.9612 44.334 9.77511L44.099 9.89197L44.5279 10.8641L44.7813 10.741C46.3061 10.0016 47.5949 9.67169 48.9596 9.67169C51.9815 9.67169 53.5771 11.1826 53.5771 14.0411V14.7516C52.089 14.2889 50.5406 14.0529 48.9832 14.0515C45.3108 14.0515 42.9364 15.7889 42.9364 18.4757V18.5285C42.9364 21.4076 45.5879 22.7179 48.0515 22.7179C50.7882 22.7179 52.669 21.4242 53.5771 20.1469V22.7521H54.6679V14.0142C54.6679 12.3523 54.202 11.0037 53.3196 10.1143M53.5771 15.8768V17.3546C53.5771 19.4178 51.4746 21.6444 48.0772 21.6444C46.221 21.6444 44.0538 20.8223 44.0538 18.5026V18.4499C44.0538 15.9988 46.614 15.126 49.0099 15.126C50.7133 15.126 52.1662 15.3649 53.5771 15.8768Z" fill="white"/>
<path d="M32.5666 9.66963C33.7774 9.65683 34.9601 10.0376 35.9394 10.7555L35.9578 10.769H37.6181L37.4939 10.6521C36.5899 9.77201 35.0969 8.60028 32.5912 8.60028C28.8059 8.60028 25.7245 11.7628 25.7245 15.6493V15.6989C25.7245 19.5885 28.7946 22.7521 32.5666 22.7521C34.4741 22.7521 36.0851 22.0716 37.4919 20.6713L37.6119 20.5513H35.9619L35.9435 20.5648C34.9787 21.2987 33.7999 21.69 32.5912 21.6775C29.4205 21.6775 26.845 18.9887 26.845 15.6741V15.6245C26.845 12.2861 29.36 9.6717 32.5707 9.6717" fill="white"/>
</g>
<defs>
<clipPath id="clip0_9_49">
<rect width="88.1045" height="22.75" fill="white"/>
</clipPath>
</defs>
</svg>
