<svg width="215" height="46" viewBox="0 0 215 46" fill="none" xmlns="http://www.w3.org/2000/svg">
<path d="M1.45727 8.09896C0.93569 7.45122 0.693061 6.62302 0.782755 5.79657C0.872448 4.97012 1.28712 4.21311 1.93554 3.69208C2.58396 3.17105 3.41302 2.92867 4.24033 3.01827C5.06764 3.10787 5.82544 3.52211 6.34701 4.16985L6.40387 4.24336L15.2971 15.603C15.366 15.6926 15.4397 15.7785 15.5178 15.8603C14.4271 16.0387 13.3991 16.4889 12.5287 17.1692C11.6582 17.8495 10.9735 18.7381 10.5377 19.7527C10.482 19.654 10.4182 19.5602 10.3471 19.472L1.45727 8.09896Z" fill="#282828"/>
<path d="M31.9195 36.869C32.4246 37.5167 32.6551 38.3366 32.5614 39.1523C32.4677 39.9681 32.0572 40.7145 31.4183 41.2311C30.7794 41.7476 29.9631 41.9931 29.1449 41.9146C28.3267 41.8361 27.572 41.44 27.0431 40.8114L26.9796 40.7313L18.0864 29.3716C17.9405 29.1814 17.7708 29.0107 17.5814 28.8637C18.6967 28.6921 19.7492 28.2369 20.6377 27.5418C21.5262 26.8468 22.2209 25.9351 22.6551 24.8945C22.7556 25.1077 22.8789 25.3093 23.023 25.4959L31.9195 36.869Z" fill="#282828"/>
<path d="M15.7452 28.8971C15.5815 29.0328 15.4334 29.1864 15.3038 29.3549L6.41056 40.7145C6.16664 41.0641 5.854 41.3603 5.4917 41.5852C5.12941 41.81 4.72506 41.9588 4.30332 42.0225C3.88158 42.0861 3.45128 42.0632 3.03866 41.9553C2.62605 41.8474 2.23977 41.6566 1.90338 41.3946C1.56699 41.1327 1.28755 40.805 1.08209 40.4316C0.876635 40.0582 0.74947 39.6469 0.708353 39.2228C0.667235 38.7987 0.713027 38.3707 0.842936 37.9648C0.972844 37.559 1.18415 37.1839 1.46396 36.8623L10.3538 25.5026C10.4417 25.3906 10.5211 25.2723 10.5913 25.1484C11.063 26.1574 11.7838 27.0299 12.686 27.6839C13.5882 28.338 14.6421 28.752 15.7486 28.8871" fill="#282828"/>
<path d="M17.7955 15.9337C17.8999 15.8372 17.9961 15.7322 18.0831 15.6197L26.9763 4.26001C27.4989 3.64235 28.2405 3.2507 29.0458 3.16711C29.851 3.08351 30.6574 3.31447 31.296 3.81159C31.9346 4.30871 32.3558 5.03342 32.4714 5.83387C32.587 6.63433 32.3881 7.44842 31.9162 8.10559L23.023 19.4653C22.8934 19.6314 22.7813 19.8106 22.6886 19.9998C22.284 18.9642 21.6228 18.0481 20.767 17.3375C19.9112 16.6269 18.8887 16.145 17.7955 15.9371" fill="#282828"/>
<path d="M20.8323 22.4856C20.8323 23.3028 20.5898 24.1016 20.1355 24.7811C19.6812 25.4606 19.0355 25.9903 18.2799 26.3033C17.5243 26.6163 16.6928 26.6986 15.8904 26.5396C15.0881 26.3807 14.3509 25.9877 13.772 25.4104C13.1931 24.8331 12.7986 24.0973 12.6382 23.296C12.4778 22.4948 12.5588 21.664 12.8709 20.9087C13.183 20.1534 13.7122 19.5074 14.3917 19.0525C15.0712 18.5976 15.8704 18.354 16.6884 18.3527C17.2321 18.3523 17.7707 18.4588 18.2732 18.6663C18.7757 18.8738 19.2324 19.1781 19.6172 19.5618C20.002 19.9456 20.3074 20.4014 20.5158 20.903C20.7243 21.4047 20.8319 21.9425 20.8323 22.4856Z" fill="#FF8500"/>
<path d="M58.377 36V31.5418L58.302 30.8675V23.5246C58.302 21.7014 57.8025 20.3153 56.8035 19.3662C55.8294 18.4171 54.3933 17.9426 52.4952 17.9426C51.1465 17.9426 49.8852 18.1798 48.7114 18.6544C47.5625 19.1039 46.5759 19.6909 45.7517 20.4152L44.8152 19.0665C45.7892 18.1923 46.9631 17.518 48.3367 17.0435C49.7104 16.5439 51.1465 16.2942 52.645 16.2942C55.0677 16.2942 56.9284 16.9061 58.2271 18.1299C59.5258 19.3537 60.1752 21.1769 60.1752 23.5996V36H58.377ZM51.3338 36.1499C49.8852 36.1499 48.624 35.9251 47.55 35.4755C46.501 35.001 45.6893 34.3391 45.1149 33.4899C44.5654 32.6408 44.2907 31.6667 44.2907 30.5678C44.2907 29.5688 44.5155 28.6696 44.965 27.8704C45.4396 27.0462 46.2138 26.3844 47.2878 25.8848C48.3617 25.3604 49.7978 25.0981 51.5961 25.0981H58.7891V26.5592H51.6335C49.6105 26.5592 48.1869 26.9338 47.3627 27.6831C46.5635 28.4324 46.1638 29.369 46.1638 30.4929C46.1638 31.7416 46.6384 32.7407 47.5875 33.4899C48.5365 34.2392 49.8727 34.6138 51.5961 34.6138C53.2445 34.6138 54.6306 34.2392 55.7545 33.4899C56.9034 32.7407 57.7526 31.6542 58.302 30.2306L58.8265 31.5044C58.302 32.928 57.4029 34.0644 56.1291 34.9136C54.8804 35.7378 53.2819 36.1499 51.3338 36.1499ZM75.6479 36.1499C73.7498 36.1499 72.0514 35.7253 70.5529 34.8761C69.0793 34.0269 67.9055 32.8531 67.0313 31.3545C66.1822 29.856 65.7576 28.1451 65.7576 26.222C65.7576 24.2739 66.1822 22.5506 67.0313 21.0521C67.9055 19.5535 69.0793 18.3921 70.5529 17.5679C72.0514 16.7188 73.7498 16.2942 75.6479 16.2942C77.2214 16.2942 78.645 16.5939 79.9188 17.1933C81.2175 17.7927 82.2665 18.6918 83.0657 19.8907L81.6796 20.9022C80.9802 19.9032 80.1061 19.1664 79.0571 18.6918C78.0081 18.2173 76.8717 17.98 75.6479 17.98C74.1244 17.98 72.7508 18.3297 71.527 19.029C70.3281 19.7034 69.379 20.6649 68.6797 21.9137C68.0054 23.1375 67.6682 24.5736 67.6682 26.222C67.6682 27.8704 68.0054 29.319 68.6797 30.5678C69.379 31.7916 70.3281 32.7532 71.527 33.4525C72.7508 34.1268 74.1244 34.464 75.6479 34.464C76.8717 34.464 78.0081 34.2267 79.0571 33.7522C80.1061 33.2776 80.9802 32.5409 81.6796 31.5418L83.0657 32.5534C82.2665 33.7522 81.2175 34.6513 79.9188 35.2507C78.645 35.8501 77.2214 36.1499 75.6479 36.1499ZM100.999 36V31.5418L100.924 30.8675V23.5246C100.924 21.7014 100.425 20.3153 99.4256 19.3662C98.4515 18.4171 97.0154 17.9426 95.1173 17.9426C93.7686 17.9426 92.5073 18.1798 91.3335 18.6544C90.1846 19.1039 89.198 19.6909 88.3738 20.4152L87.4372 19.0665C88.4113 18.1923 89.5852 17.518 90.9588 17.0435C92.3325 16.5439 93.7686 16.2942 95.2671 16.2942C97.6898 16.2942 99.5505 16.9061 100.849 18.1299C102.148 19.3537 102.797 21.1769 102.797 23.5996V36H100.999ZM93.9559 36.1499C92.5073 36.1499 91.246 35.9251 90.1721 35.4755C89.1231 35.001 88.3114 34.3391 87.737 33.4899C87.1875 32.6408 86.9128 31.6667 86.9128 30.5678C86.9128 29.5688 87.1375 28.6696 87.5871 27.8704C88.0616 27.0462 88.8359 26.3844 89.9098 25.8848C90.9838 25.3604 92.4199 25.0981 94.2181 25.0981H101.411V26.5592H94.2556C92.2326 26.5592 90.809 26.9338 89.9848 27.6831C89.1855 28.4324 88.7859 29.369 88.7859 30.4929C88.7859 31.7416 89.2605 32.7407 90.2095 33.4899C91.1586 34.2392 92.4948 34.6138 94.2181 34.6138C95.8665 34.6138 97.2527 34.2392 98.3766 33.4899C99.5255 32.7407 100.375 31.6542 100.924 30.2306L101.449 31.5044C100.924 32.928 100.025 34.0644 98.7512 34.9136C97.5024 35.7378 95.904 36.1499 93.9559 36.1499ZM118.045 36.1499C116.222 36.1499 114.574 35.7378 113.1 34.9136C111.651 34.0644 110.503 32.8905 109.653 31.392C108.804 29.8934 108.38 28.1701 108.38 26.222C108.38 24.2489 108.804 22.5256 109.653 21.0521C110.503 19.5535 111.651 18.3921 113.1 17.5679C114.574 16.7188 116.222 16.2942 118.045 16.2942C119.769 16.2942 121.317 16.6938 122.691 17.493C124.089 18.2922 125.188 19.4286 125.988 20.9022C126.812 22.3758 127.224 24.149 127.224 26.222C127.224 28.245 126.824 30.0058 126.025 31.5044C125.226 33.0029 124.127 34.1518 122.728 34.951C121.355 35.7502 119.794 36.1499 118.045 36.1499ZM118.158 34.464C119.656 34.464 120.992 34.1268 122.166 33.4525C123.365 32.7532 124.302 31.7791 124.976 30.5303C125.675 29.2815 126.025 27.8454 126.025 26.222C126.025 24.5736 125.675 23.1375 124.976 21.9137C124.302 20.6649 123.365 19.7034 122.166 19.029C120.992 18.3297 119.656 17.98 118.158 17.98C116.659 17.98 115.31 18.3297 114.112 19.029C112.938 19.7034 112.001 20.6649 111.302 21.9137C110.627 23.1375 110.29 24.5736 110.29 26.222C110.29 27.8454 110.627 29.2815 111.302 30.5303C112.001 31.7791 112.938 32.7532 114.112 33.4525C115.31 34.1268 116.659 34.464 118.158 34.464ZM126.062 36V29.5937L126.4 26.1846L126.025 22.7754V8.20206H127.898V36H126.062ZM143.738 36.1499C141.765 36.1499 140.017 35.7253 138.493 34.8761C136.994 34.0269 135.808 32.8531 134.934 31.3545C134.085 29.856 133.66 28.1451 133.66 26.222C133.66 24.2739 134.06 22.5631 134.859 21.0895C135.683 19.591 136.807 18.4171 138.231 17.5679C139.654 16.7188 141.253 16.2942 143.026 16.2942C144.799 16.2942 146.385 16.7063 147.784 17.5305C149.208 18.3547 150.319 19.516 151.118 21.0146C151.942 22.4882 152.355 24.199 152.355 26.1471C152.355 26.222 152.342 26.3094 152.317 26.4093C152.317 26.4843 152.317 26.5717 152.317 26.6716H135.046V25.2105H151.306L150.556 25.9223C150.581 24.3988 150.257 23.0376 149.582 21.8388C148.933 20.615 148.046 19.6659 146.922 18.9916C145.798 18.2922 144.5 17.9426 143.026 17.9426C141.578 17.9426 140.279 18.2922 139.13 18.9916C138.006 19.6659 137.119 20.615 136.47 21.8388C135.821 23.0376 135.496 24.4113 135.496 25.9598V26.2969C135.496 27.8954 135.846 29.319 136.545 30.5678C137.269 31.7916 138.256 32.7532 139.505 33.4525C140.753 34.1268 142.177 34.464 143.775 34.464C145.024 34.464 146.186 34.2392 147.259 33.7897C148.358 33.3401 149.283 32.6533 150.032 31.7292L151.118 32.9655C150.269 34.0144 149.195 34.8137 147.896 35.3631C146.623 35.8876 145.236 36.1499 143.738 36.1499ZM182.501 16.2942C184.074 16.2942 185.435 16.6064 186.584 17.2308C187.758 17.8302 188.67 18.7543 189.319 20.0031C189.968 21.2269 190.293 22.7504 190.293 24.5736V36H188.42V24.7235C188.42 22.5256 187.883 20.8522 186.809 19.7034C185.735 18.5545 184.236 17.98 182.313 17.98C180.84 17.98 179.566 18.2922 178.492 18.9166C177.418 19.541 176.594 20.4152 176.019 21.5391C175.445 22.663 175.158 24.0117 175.158 25.5851V36H173.285V24.7235C173.285 22.5256 172.748 20.8522 171.674 19.7034C170.6 18.5545 169.101 17.98 167.178 17.98C165.705 17.98 164.431 18.2922 163.357 18.9166C162.283 19.541 161.459 20.4152 160.884 21.5391C160.31 22.663 160.023 24.0117 160.023 25.5851V36H158.149V16.444H159.948V21.8388L159.685 21.2394C160.26 19.7159 161.221 18.517 162.57 17.6429C163.919 16.7437 165.542 16.2942 167.44 16.2942C169.388 16.2942 171.024 16.7937 172.348 17.7927C173.697 18.7668 174.546 20.2279 174.896 22.176L174.259 21.9137C174.783 20.2403 175.77 18.8917 177.218 17.8676C178.667 16.8187 180.428 16.2942 182.501 16.2942ZM197.212 43.4178C196.313 43.4178 195.464 43.2679 194.665 42.9682C193.89 42.6685 193.229 42.2314 192.679 41.657L193.616 40.2334C194.115 40.7579 194.652 41.145 195.227 41.3947C195.826 41.6445 196.5 41.7694 197.25 41.7694C198.149 41.7694 198.935 41.5196 199.61 41.0201C200.309 40.5206 200.958 39.609 201.558 38.2853L202.907 35.2882L203.169 34.951L211.448 16.444H213.359L203.319 38.6599C202.794 39.8587 202.22 40.7953 201.595 41.4697C200.996 42.169 200.334 42.6685 199.61 42.9682C198.885 43.2679 198.086 43.4178 197.212 43.4178ZM202.869 36.487L193.803 16.444H195.789L204.03 34.8386L202.869 36.487Z" fill="#282828"/>
</svg>
