<svg width="125" height="27" viewBox="0 0 125 27" fill="none" xmlns="http://www.w3.org/2000/svg">
<path d="M0.445393 4.7244C0.141141 4.34654 -0.000392538 3.86343 0.0519286 3.38133C0.10425 2.89924 0.34614 2.45765 0.724385 2.15371C1.10263 1.84978 1.58625 1.70839 2.06885 1.76066C2.55145 1.81292 2.99349 2.05456 3.29775 2.43241L3.33091 2.47529L8.51861 9.10177C8.55885 9.15403 8.60183 9.20412 8.64737 9.25184C8.01115 9.35592 7.41146 9.61852 6.90371 10.0154C6.39596 10.4122 5.99653 10.9305 5.74234 11.5224C5.70982 11.4649 5.67263 11.4101 5.63113 11.3587L0.445393 4.7244Z" fill="#FFF6F6"/>
<path d="M18.215 21.5069C18.5097 21.8847 18.6441 22.363 18.5894 22.8388C18.5348 23.3147 18.2953 23.7501 17.9226 24.0514C17.5499 24.3528 17.0737 24.4959 16.5964 24.4502C16.1192 24.4044 15.6789 24.1733 15.3704 23.8067L15.3334 23.7599L10.1457 17.1334C10.0606 17.0224 9.96159 16.9229 9.85107 16.8372C10.5017 16.7371 11.1157 16.4715 11.634 16.0661C12.1523 15.6606 12.5575 15.1288 12.8107 14.5218C12.8694 14.6461 12.9413 14.7638 13.0253 14.8726L18.215 21.5069Z" fill="#FFF6F6"/>
<path d="M8.78005 16.8567C8.68454 16.9358 8.59816 17.0254 8.52251 17.1237L3.33482 23.7501C3.19253 23.954 3.01016 24.1268 2.79882 24.258C2.58748 24.3892 2.35161 24.476 2.1056 24.5131C1.85958 24.5502 1.60857 24.5369 1.36788 24.4739C1.12719 24.411 0.901858 24.2997 0.705632 24.1469C0.509406 23.994 0.346398 23.8029 0.226548 23.5851C0.106697 23.3673 0.0325177 23.1274 0.0085324 22.88C-0.0154529 22.6326 0.0112591 22.3829 0.0870392 22.1462C0.162819 21.9094 0.286079 21.6906 0.449301 21.503L5.63504 14.8765C5.68632 14.8112 5.73262 14.7421 5.77356 14.6699C6.04872 15.2585 6.46921 15.7674 6.99549 16.149C7.52177 16.5305 8.13655 16.772 8.782 16.8508" fill="white"/>
<path d="M9.97607 9.29464C10.037 9.23833 10.0931 9.17705 10.1439 9.11144L15.3316 2.48496C15.6364 2.12466 16.069 1.89619 16.5388 1.84743C17.0085 1.79867 17.4789 1.9334 17.8514 2.22338C18.2239 2.51337 18.4696 2.93611 18.5371 3.40305C18.6045 3.86998 18.4884 4.34487 18.2132 4.72822L13.0255 11.3547C12.9498 11.4516 12.8845 11.5561 12.8304 11.6665C12.5944 11.0624 12.2087 10.528 11.7095 10.1135C11.2102 9.69898 10.6138 9.41789 9.97607 9.29659" fill="white"/>
<path d="M11.7477 13.1166C11.7477 13.5933 11.6062 14.0592 11.3412 14.4556C11.0762 14.852 10.6995 15.161 10.2587 15.3436C9.81798 15.5262 9.33293 15.5742 8.86489 15.4814C8.39684 15.3887 7.96681 15.1595 7.62914 14.8227C7.29147 14.486 7.06131 14.0567 6.96775 13.5893C6.87419 13.1219 6.92142 12.6373 7.10349 12.1967C7.28555 11.7561 7.59428 11.3793 7.99064 11.1139C8.387 10.8486 8.85322 10.7065 9.33038 10.7058C9.64756 10.7055 9.96169 10.7677 10.2548 10.8887C10.548 11.0097 10.8144 11.1872 11.0388 11.4111C11.2633 11.6349 11.4414 11.9008 11.5631 12.1934C11.6847 12.4861 11.7474 12.7998 11.7477 13.1166Z" fill="#FF8500"/>
<path d="M33.6487 21V18.3994L33.605 18.006V13.7227C33.605 12.6592 33.3136 11.8506 32.7308 11.2969C32.1627 10.7433 31.3249 10.4665 30.2177 10.4665C29.4309 10.4665 28.6952 10.6049 28.0104 10.8817C27.3403 11.144 26.7648 11.4863 26.284 11.9088L25.7377 11.1221C26.3059 10.6122 26.9906 10.2188 27.7919 9.94201C28.5932 9.65063 29.4309 9.50494 30.3051 9.50494C31.7183 9.50494 32.8037 9.86188 33.5613 10.5758C34.3189 11.2897 34.6977 12.3532 34.6977 13.7664V21H33.6487ZM29.5402 21.0874C28.6952 21.0874 27.9595 20.9563 27.333 20.694C26.7211 20.4172 26.2476 20.0312 25.9125 19.5358C25.592 19.0404 25.4317 18.4723 25.4317 17.8312C25.4317 17.2484 25.5628 16.724 25.8251 16.2577C26.1019 15.777 26.5535 15.3909 27.18 15.0995C27.8065 14.7935 28.6442 14.6406 29.6932 14.6406H33.8891V15.4929H29.715C28.5349 15.4929 27.7045 15.7114 27.2237 16.1485C26.7575 16.5855 26.5244 17.1319 26.5244 17.7875C26.5244 18.516 26.8012 19.0987 27.3548 19.5358C27.9085 19.9729 28.6879 20.1914 29.6932 20.1914C30.6547 20.1914 31.4633 19.9729 32.1189 19.5358C32.7891 19.0987 33.2845 18.465 33.605 17.6345L33.911 18.3776C33.605 19.208 33.0805 19.8709 32.3375 20.3662C31.609 20.847 30.6766 21.0874 29.5402 21.0874ZM43.7234 21.0874C42.6162 21.0874 41.6255 20.8397 40.7513 20.3444C39.8918 19.849 39.207 19.1643 38.6971 18.2901C38.2017 17.416 37.9541 16.418 37.9541 15.2962C37.9541 14.1598 38.2017 13.1545 38.6971 12.2804C39.207 11.4062 39.8918 10.7287 40.7513 10.248C41.6255 9.75261 42.6162 9.50494 43.7234 9.50494C44.6413 9.50494 45.4717 9.67977 46.2148 10.0294C46.9724 10.3791 47.5843 10.9036 48.0505 11.6029L47.2419 12.1929C46.834 11.6102 46.324 11.1804 45.7121 10.9036C45.1002 10.6268 44.4373 10.4884 43.7234 10.4884C42.8347 10.4884 42.0334 10.6923 41.3195 11.1003C40.6202 11.4936 40.0666 12.0545 39.6587 12.783C39.2653 13.4969 39.0686 14.3346 39.0686 15.2962C39.0686 16.2577 39.2653 17.1028 39.6587 17.8312C40.0666 18.5451 40.6202 19.106 41.3195 19.5139C42.0334 19.9073 42.8347 20.104 43.7234 20.104C44.4373 20.104 45.1002 19.9656 45.7121 19.6888C46.324 19.412 46.834 18.9822 47.2419 18.3994L48.0505 18.9895C47.5843 19.6888 46.9724 20.2133 46.2148 20.5629C45.4717 20.9126 44.6413 21.0874 43.7234 21.0874ZM58.5116 21V18.3994L58.4679 18.006V13.7227C58.4679 12.6592 58.1765 11.8506 57.5937 11.2969C57.0255 10.7433 56.1878 10.4665 55.0806 10.4665C54.2938 10.4665 53.5581 10.6049 52.8733 10.8817C52.2031 11.144 51.6277 11.4863 51.1469 11.9088L50.6005 11.1221C51.1687 10.6122 51.8535 10.2188 52.6548 9.94201C53.4561 9.65063 54.2938 9.50494 55.168 9.50494C56.5812 9.50494 57.6666 9.86188 58.4242 10.5758C59.1818 11.2897 59.5606 12.3532 59.5606 13.7664V21H58.5116ZM54.4031 21.0874C53.5581 21.0874 52.8223 20.9563 52.1959 20.694C51.584 20.4172 51.1105 20.0312 50.7754 19.5358C50.4548 19.0404 50.2946 18.4723 50.2946 17.8312C50.2946 17.2484 50.4257 16.724 50.688 16.2577C50.9648 15.777 51.4164 15.3909 52.0429 15.0995C52.6694 14.7935 53.5071 14.6406 54.5561 14.6406H58.752V15.4929H54.5779C53.3978 15.4929 52.5674 15.7114 52.0866 16.1485C51.6204 16.5855 51.3873 17.1319 51.3873 17.7875C51.3873 18.516 51.6641 19.0987 52.2177 19.5358C52.7713 19.9729 53.5508 20.1914 54.5561 20.1914C55.5176 20.1914 56.3262 19.9729 56.9818 19.5358C57.652 19.0987 58.1474 18.465 58.4679 17.6345L58.7738 18.3776C58.4679 19.208 57.9434 19.8709 57.2004 20.3662C56.4719 20.847 55.5395 21.0874 54.4031 21.0874ZM68.4552 21.0874C67.3917 21.0874 66.4301 20.847 65.5705 20.3662C64.7255 19.8709 64.0553 19.1861 63.56 18.312C63.0646 17.4378 62.8169 16.4326 62.8169 15.2962C62.8169 14.1452 63.0646 13.1399 63.56 12.2804C64.0553 11.4062 64.7255 10.7287 65.5705 10.248C66.4301 9.75261 67.3917 9.50494 68.4552 9.50494C69.4605 9.50494 70.3638 9.73805 71.1651 10.2043C71.9809 10.6705 72.622 11.3334 73.0882 12.1929C73.569 13.0525 73.8094 14.0869 73.8094 15.2962C73.8094 16.4763 73.5763 17.5034 73.11 18.3776C72.6438 19.2517 72.0028 19.9219 71.1869 20.3881C70.3856 20.8543 69.475 21.0874 68.4552 21.0874ZM68.5208 20.104C69.3949 20.104 70.1744 19.9073 70.8591 19.5139C71.5584 19.106 72.1048 18.5378 72.4981 17.8094C72.9061 17.0809 73.11 16.2432 73.11 15.2962C73.11 14.3346 72.9061 13.4969 72.4981 12.783C72.1048 12.0545 71.5584 11.4936 70.8591 11.1003C70.1744 10.6923 69.3949 10.4884 68.5208 10.4884C67.6466 10.4884 66.8599 10.6923 66.1606 11.1003C65.4758 11.4936 64.9295 12.0545 64.5215 12.783C64.1282 13.4969 63.9315 14.3346 63.9315 15.2962C63.9315 16.2432 64.1282 17.0809 64.5215 17.8094C64.9295 18.5378 65.4758 19.106 66.1606 19.5139C66.8599 19.9073 67.6466 20.104 68.5208 20.104ZM73.1319 21V17.263L73.3286 15.2743L73.11 13.2856V4.78453H74.2027V21H73.1319ZM83.4426 21.0874C82.2916 21.0874 81.2718 20.8397 80.3831 20.3444C79.5089 19.849 78.8169 19.1643 78.307 18.2901C77.8116 17.416 77.5639 16.418 77.5639 15.2962C77.5639 14.1598 77.797 13.1618 78.2633 12.3022C78.744 11.4281 79.3997 10.7433 80.2301 10.248C81.0605 9.75261 81.993 9.50494 83.0274 9.50494C84.0618 9.50494 84.9869 9.74533 85.8028 10.2261C86.6332 10.7069 87.2816 11.3844 87.7478 12.2585C88.2286 13.1181 88.469 14.1161 88.469 15.2525C88.469 15.2962 88.4617 15.3472 88.4471 15.4054C88.4471 15.4492 88.4471 15.5001 88.4471 15.5584H78.3725V14.7061H87.857L87.42 15.1213C87.4345 14.2326 87.2451 13.4386 86.8518 12.7393C86.473 12.0254 85.9558 11.4718 85.3002 11.0784C84.6445 10.6705 83.887 10.4665 83.0274 10.4665C82.1824 10.4665 81.4248 10.6705 80.7546 11.0784C80.099 11.4718 79.5818 12.0254 79.203 12.7393C78.8242 13.4386 78.6348 14.2399 78.6348 15.1432V15.3399C78.6348 16.2723 78.8387 17.1028 79.2467 17.8312C79.6692 18.5451 80.2447 19.106 80.9731 19.5139C81.7016 19.9073 82.532 20.104 83.4644 20.104C84.1929 20.104 84.8704 19.9729 85.4968 19.7106C86.1379 19.4484 86.6769 19.0477 87.114 18.5087L87.7478 19.2298C87.2524 19.8418 86.626 20.308 85.8684 20.6285C85.1253 20.9344 84.3167 21.0874 83.4426 21.0874ZM106.054 9.50494C106.972 9.50494 107.766 9.68705 108.436 10.0513C109.121 10.4009 109.653 10.94 110.032 11.6685C110.41 12.3823 110.6 13.2711 110.6 14.3346V21H109.507V14.422C109.507 13.1399 109.194 12.1638 108.567 11.4936C107.941 10.8234 107.067 10.4884 105.945 10.4884C105.085 10.4884 104.342 10.6705 103.716 11.0347C103.089 11.3989 102.609 11.9088 102.274 12.5645C101.938 13.2201 101.771 14.0068 101.771 14.9247V21H100.678V14.422C100.678 13.1399 100.365 12.1638 99.7385 11.4936C99.112 10.8234 98.2379 10.4884 97.116 10.4884C96.2564 10.4884 95.5134 10.6705 94.8869 11.0347C94.2605 11.3989 93.7797 11.9088 93.4446 12.5645C93.1095 13.2201 92.942 14.0068 92.942 14.9247V21H91.8493V9.59235H92.8983V12.7393L92.7453 12.3896C93.0804 11.5009 93.6413 10.8016 94.428 10.2917C95.2148 9.76718 96.1617 9.50494 97.269 9.50494C98.4054 9.50494 99.3597 9.79632 100.132 10.3791C100.919 10.9473 101.414 11.7996 101.618 12.936L101.246 12.783C101.552 11.8069 102.128 11.0201 102.973 10.4228C103.818 9.81089 104.845 9.50494 106.054 9.50494ZM114.636 25.327C114.111 25.327 113.616 25.2396 113.15 25.0648C112.698 24.89 112.312 24.635 111.992 24.2999L112.538 23.4695C112.829 23.7754 113.143 24.0012 113.478 24.1469C113.827 24.2926 114.221 24.3655 114.658 24.3655C115.182 24.3655 115.641 24.2198 116.035 23.9284C116.442 23.637 116.821 23.1052 117.171 22.3331L117.958 20.5848L118.111 20.3881L122.94 9.59235H124.055L118.198 22.5516C117.892 23.2509 117.557 23.7973 117.193 24.1906C116.843 24.5986 116.457 24.89 116.035 25.0648C115.612 25.2396 115.146 25.327 114.636 25.327ZM117.936 21.2841L112.647 9.59235H113.805L118.613 20.3225L117.936 21.2841Z" fill="white"/>
</svg>
