<svg width="30" height="30" viewBox="0 0 30 30" fill="none" xmlns="http://www.w3.org/2000/svg">
<path fill-rule="evenodd" clip-rule="evenodd" d="M29.892 14.56C29.892 22.6013 23.3665 29.12 15.3169 29.12C7.26722 29.12 0.741699 22.6013 0.741699 14.56C0.741699 6.51873 7.26722 0 15.3169 0C23.3665 0 29.892 6.51873 29.892 14.56ZM12.7598 8.12914C12.2409 8.01848 11.6672 7.96257 11.0388 7.96257H4.82275V21.1586H11.2253C11.8083 21.1598 12.3902 21.0852 12.9545 20.9373C13.5154 20.7893 14.0144 20.5622 14.4529 20.2535C14.8913 19.946 15.2399 19.5488 15.4988 19.062C15.7576 18.5751 15.887 17.9985 15.887 17.3334C15.887 16.5075 15.6865 15.8017 15.2854 15.2169C14.8843 14.6322 14.2768 14.2222 13.4629 13.9881C14.0541 13.705 14.5018 13.3416 14.8038 12.8978C15.1058 12.454 15.2574 11.8996 15.2574 11.2345C15.2574 10.6183 15.156 10.1011 14.9519 9.68182C14.7479 9.26249 14.461 8.92703 14.0914 8.67426C13.7218 8.4215 13.2787 8.23979 12.7598 8.12914ZM11.9459 12.9339C11.6124 13.1797 11.1868 13.3032 10.6691 13.3032L7.72845 13.3055V10.2188H10.4464C10.6983 10.2176 10.949 10.2398 11.1962 10.2829C11.4364 10.326 11.6486 10.4028 11.834 10.5135C12.0194 10.6241 12.1675 10.7791 12.2782 10.9759C12.389 11.1728 12.445 11.4255 12.445 11.733C12.4461 12.2875 12.2794 12.687 11.9459 12.9339ZM11.6498 18.8197C11.3827 18.8756 11.1099 18.9035 10.8359 18.9024L7.72845 18.9035V15.281H10.8918C11.5203 15.281 12.0264 15.4254 12.4088 15.7155C12.7913 16.0044 12.9825 16.4889 12.9825 17.1657C12.9825 17.5104 12.923 17.7946 12.8064 18.016C12.6887 18.2373 12.5313 18.4132 12.3342 18.5424C12.1371 18.6717 11.9086 18.7638 11.6498 18.8197ZM21.2437 19.1982C20.5033 19.1982 19.9354 19.0072 19.5413 18.6252C19.1472 18.2443 18.9315 17.6281 18.8954 16.7813H25.7958C25.8448 16.0416 25.783 15.3334 25.6104 14.6555C25.4379 13.9776 25.1569 13.3742 24.7686 12.8442C24.3803 12.3143 23.8836 11.8926 23.2796 11.5781C22.6744 11.2636 21.9655 11.1064 21.1516 11.1064C20.424 11.1064 19.7605 11.2357 19.1624 11.4942C18.5642 11.7528 18.0488 12.1069 17.6174 12.5565C17.186 13.0062 16.8525 13.5385 16.6181 14.1546C16.3838 14.7708 16.2672 15.4359 16.2672 16.15C16.2672 16.8884 16.3814 17.5663 16.6088 18.1825C16.8362 18.7987 17.1603 19.3275 17.5801 19.7713C17.9999 20.2151 18.5117 20.5576 19.1157 20.7975C19.7197 21.0375 20.3984 21.1574 21.1504 21.1574C22.236 21.1574 23.1606 20.9105 23.9255 20.4178C24.6905 19.9251 25.2583 19.1062 25.6279 17.9601H23.3157C23.2294 18.2559 22.9951 18.5366 22.6126 18.801C22.2302 19.0654 21.7743 19.1982 21.2437 19.1982ZM21.077 13.0819C21.7183 13.0819 22.1963 13.2543 22.5112 13.599C22.8248 13.9438 23.044 14.4493 23.1688 15.1133H18.8954C18.907 14.9292 18.9478 14.7196 19.0155 14.4855C19.0831 14.2513 19.1997 14.03 19.3664 13.8204C19.5332 13.6107 19.7547 13.436 20.0322 13.2939C20.3086 13.1529 20.6572 13.0819 21.077 13.0819ZM23.7845 8.63233H18.4453V10.1116H23.7845V8.63233Z" fill="white"/>
</svg>
