<svg width="30" height="30" viewBox="0 0 30 30" fill="none" xmlns="http://www.w3.org/2000/svg">
<path fill-rule="evenodd" clip-rule="evenodd" d="M29.9879 14.56C29.9879 22.6013 23.4623 29.12 15.4127 29.12C7.36305 29.12 0.837524 22.6013 0.837524 14.56C0.837524 6.51873 7.36305 0 15.4127 0C23.4623 0 29.9879 6.51873 29.9879 14.56ZM19.3767 9.22352C19.5422 9.11281 19.7369 9.05371 19.936 9.0537C20.0676 9.05262 20.1982 9.07757 20.3201 9.12714C20.442 9.1767 20.5528 9.24988 20.6463 9.34247C20.7397 9.43506 20.8139 9.54521 20.8645 9.66658C20.9152 9.78795 20.9412 9.91813 20.9412 10.0496C20.9428 10.2486 20.8853 10.4435 20.7758 10.6097C20.6664 10.7759 20.51 10.9059 20.3264 10.9832C20.1429 11.0604 19.9405 11.0815 19.745 11.0437C19.5495 11.0059 19.3696 10.9109 19.2282 10.7708C19.0868 10.6307 18.9903 10.4518 18.9508 10.2568C18.9113 10.0618 18.9308 9.85946 19.0066 9.6755C19.0824 9.49154 19.2112 9.33422 19.3767 9.22352ZM15.4868 10.3377C14.6538 10.3361 13.839 10.5813 13.1455 11.0425C12.4521 11.5036 11.9111 12.1599 11.5912 12.9283C11.2713 13.6967 11.1867 14.5426 11.3483 15.359C11.5098 16.1754 11.9101 16.9256 12.4986 17.5146C13.0871 18.1036 13.8373 18.505 14.6542 18.668C15.4711 18.8309 16.3181 18.7481 17.0879 18.43C17.8577 18.1119 18.5157 17.5729 18.9787 16.881C19.4417 16.1892 19.6888 15.3757 19.6888 14.5435C19.6888 13.4295 19.2464 12.361 18.4586 11.5725C17.6708 10.7839 16.602 10.3399 15.4868 10.3377ZM15.4868 17.235C14.9516 17.2366 14.428 17.0794 13.9823 16.7834C13.5367 16.4874 13.189 16.0659 12.9834 15.5722C12.7779 15.0786 12.7237 14.5351 12.8277 14.0107C12.9317 13.4862 13.1892 13.0044 13.5677 12.6264C13.9461 12.2483 14.4284 11.991 14.9534 11.8871C15.4784 11.7832 16.0225 11.8374 16.5166 12.0427C17.0107 12.2481 17.4327 12.5954 17.7291 13.0406C18.0254 13.4858 18.1827 14.0089 18.1811 14.5435C18.1789 15.2567 17.8943 15.94 17.3895 16.4443C16.8848 16.9485 16.2007 17.2328 15.4868 17.235ZM12.0017 23.0458H18.8237C20.1787 23.0437 21.4781 22.5073 22.4393 21.5532C23.4006 20.5991 23.9459 19.3046 23.9568 17.951V11.1361C23.9568 9.77535 23.4162 8.47025 22.4538 7.50732C21.4914 6.54438 20.1858 6.00232 18.8237 6.00014H12.0017C10.6395 6.00232 9.33395 6.54438 8.37156 7.50732C7.40916 8.47025 6.86863 9.77535 6.86863 11.1361V17.9181C6.87081 19.2774 7.41231 20.5804 8.37446 21.5415C9.33662 22.5027 10.641 23.0436 12.0017 23.0458ZM9.50813 8.64512C10.1695 7.98448 11.0664 7.61334 12.0017 7.61334H18.8237C19.759 7.61334 20.6559 7.98448 21.3173 8.64512C21.9786 9.30576 22.3501 10.2018 22.3501 11.1361V17.951C22.3501 18.8853 21.9786 19.7813 21.3173 20.442C20.6559 21.1026 19.759 21.4737 18.8237 21.4737H12.0017C11.0664 21.4737 10.1695 21.1026 9.50813 20.442C8.8468 19.7813 8.47527 18.8853 8.47527 17.951V11.1361C8.47527 10.2018 8.8468 9.30576 9.50813 8.64512Z" fill="white"/>
</svg>
