<svg width="30" height="30" viewBox="0 0 30 30" fill="none" xmlns="http://www.w3.org/2000/svg">
<path fill-rule="evenodd" clip-rule="evenodd" d="M0 14.56C0 22.6206 6.49944 29.12 14.56 29.12C22.6206 29.12 29.12 22.6206 29.12 14.56C29.12 6.53129 22.6206 0 14.56 0C6.49944 0 0 6.49943 0 14.56ZM7 6.32379H7.25143C8.13142 6.32379 8.79143 7.01522 8.79143 7.86379C8.79143 8.71236 8.1 9.40379 7.25143 9.40379H7C6.15143 9.40379 5.46 8.71236 5.46 7.86379C5.46 7.01522 6.15143 6.32379 7 6.32379ZM8.79143 10.2211H5.46V22.8553H8.79143V10.2211ZM22.9028 11.3524C23.2171 11.7609 23.4371 12.2324 23.5628 12.7666C23.6886 13.2695 23.7514 14.0238 23.72 15.0295V22.8866H20.3886V16.4438C20.3886 15.0924 20.3257 14.2124 20.1686 13.8038C20.0428 13.3952 19.7914 13.0809 19.4771 12.8609C19.1628 12.6409 18.7543 12.5152 18.3143 12.5152C17.7171 12.5152 17.2143 12.6724 16.7428 12.9866C16.2714 13.3009 15.9571 13.7095 15.8 14.2438C15.6428 14.7466 15.5486 15.7209 15.5486 17.1352V22.8552H12.2171V10.2209H15.3286V12.0752C16.4286 10.6609 17.8428 9.93807 19.5086 9.93807C20.2314 9.93807 20.9228 10.0952 21.52 10.3466C22.1171 10.5981 22.5886 10.9438 22.9028 11.3524Z" fill="white"/>
</svg>
