<svg width="30" height="30" viewBox="0 0 30 30" fill="none" xmlns="http://www.w3.org/2000/svg">
<path fill-rule="evenodd" clip-rule="evenodd" d="M29.12 14.56C29.12 22.6013 22.6013 29.12 14.56 29.12C6.51874 29.12 0 22.6013 0 14.56C0 6.51873 6.51874 0 14.56 0C22.6013 0 29.12 6.51873 29.12 14.56ZM20.9634 10.0331C21.5291 9.94795 22.082 9.79314 22.6096 9.57223C22.6364 9.55688 22.6508 9.5469 22.6584 9.55063C22.6672 9.5549 22.6672 9.57714 22.6672 9.62985C22.6698 9.71929 22.6406 9.80677 22.5849 9.87677C22.2275 10.3371 21.8094 10.7468 21.342 11.0949C21.3326 11.1012 21.3225 11.1076 21.312 11.1143C21.2404 11.1598 21.1527 11.2156 21.1527 11.3089C21.2184 12.6105 21.0236 13.912 20.5798 15.1374C20.136 16.3627 19.4522 17.4872 18.5683 18.4449C17.3406 19.5924 15.8333 20.3978 14.1969 20.7806C12.5605 21.1633 10.8523 21.11 9.24301 20.626C8.61485 20.4548 8.00758 20.2147 7.43227 19.9099C7.24297 19.8029 7.06189 19.6959 6.87259 19.5725C6.83144 19.5313 6.79028 19.4737 6.83144 19.4737H7.04543C7.95976 19.5572 8.88129 19.4392 9.74507 19.128C10.4054 18.9651 11.0158 18.643 11.5229 18.1897L11.1608 18.1403C10.578 18.0297 10.0332 17.772 9.57806 17.3917C9.12288 17.0114 8.7724 16.5212 8.55986 15.9674C8.52695 15.8522 8.55986 15.8522 8.65041 15.8522C9.06165 15.923 9.48198 15.923 9.89323 15.8522C9.74992 15.8236 9.60945 15.7822 9.47346 15.7288C8.92339 15.5053 8.44237 15.14 8.07947 14.6701C7.71655 14.2002 7.48471 13.6425 7.40758 13.0538C7.39584 12.9279 7.39584 12.8011 7.40758 12.6752C7.40758 12.5929 7.40758 12.56 7.50635 12.634C7.89877 12.8336 8.32669 12.9539 8.76562 12.9879C8.6257 12.8809 8.49402 12.7575 8.36234 12.634C7.85693 12.1299 7.52905 11.4753 7.4281 10.7686C7.32716 10.062 7.4586 9.34168 7.80264 8.71625C7.86026 8.62571 7.90141 8.62571 7.98372 8.71625C9.6799 10.5887 12.0126 11.7624 14.5271 12.0085C14.5929 12.0167 14.5929 12.0085 14.5929 11.9262C14.5043 11.4607 14.5189 10.9814 14.6355 10.5221C14.7521 10.0628 14.9679 9.6346 15.2678 9.2677C15.5673 8.90214 15.9367 8.59995 16.3543 8.37879C16.771 8.16258 17.2276 8.03374 17.6959 8.00018C18.1789 7.97389 18.6618 8.05251 19.1115 8.23064C19.4531 8.39768 19.7646 8.62018 20.0334 8.88909L20.198 9.0537C20.2177 9.06613 20.2405 9.07273 20.2638 9.07273C20.2871 9.07273 20.31 9.06613 20.3297 9.0537C20.9936 8.87355 21.6324 8.61086 22.231 8.27179C22.2453 8.26568 22.2607 8.26253 22.2762 8.26253C22.2918 8.26253 22.3072 8.26568 22.3215 8.27179C22.3308 8.28347 22.3359 8.29799 22.3359 8.31295C22.3359 8.32791 22.3308 8.34242 22.3215 8.3541C22.2095 8.71267 22.0277 9.04554 21.7865 9.33354C21.7501 9.36996 21.7057 9.41801 21.6559 9.47196C21.4578 9.68632 21.1739 9.9937 20.9634 10.0331Z" fill="white"/>
</svg>
